<?xml version="1.0" encoding="UTF-8"?>
<!-- Created with Inkscape (http://www.inkscape.org/) -->
<svg width="512" height="512" version="1.1" viewBox="0 0 512 512" xmlns="http://www.w3.org/2000/svg">
 <path d="m59.018 409.68h-49.437c-15.374-42.696-10.122-54.531 8.4311-81.246 5.3304-38.923-18.831-77.217-14.563-108.84 20.737-95.493 80.189-109.3 130.68-108.07 31.754 2.3614 57.076 5.8558 83.928 9.1976 119.36-40.714 96.33 22.417 190.47 7.6647 15.71-13.993 17.108-27.584 31.042 13.03 16.154 6.8481 35.049 11.347 37.557 29.892 11.683 5.7255 26.436 6.8455 34.491 18.012-1.6717 11.536-11.914 20.215-19.162 29.892-37.363 7.7958-50.039 7.8767-72.814 11.114-21.662 12.57-44.418 16.395-67.066 21.078-21.51 20.131-35.081 60.604-40.24 122.63 11.328 11.032 26.126 21.53 24.91 34.491l-95.425 0.76646c0.43435-37.046-14.435-74.092-32.192-111.14-11.497 6.6891-22.994 14.961-34.491 16.862 1.915 20.183-12.551 36.727-28.743 52.886 8.9505 6.5725 18.854 12.431 19.928 24.91h-79.713c-6.2334-10.092-7.5788-20.184-8.8144-30.275-5.5366 10.288-17.39 16.628-31.042 21.844z" fill="#fff"/>
</svg>
