<?xml version="1.0" encoding="UTF-8" standalone="no"?>
<!-- Generator: Adobe Illustrator 16.0.0, SVG Export Plug-In . SVG Version: 6.00 Build 0)  -->

<svg
   xmlns:dc="http://purl.org/dc/elements/1.1/"
   xmlns:cc="http://creativecommons.org/ns#"
   xmlns:rdf="http://www.w3.org/1999/02/22-rdf-syntax-ns#"
   xmlns:svg="http://www.w3.org/2000/svg"
   xmlns="http://www.w3.org/2000/svg"
   xmlns:sodipodi="http://sodipodi.sourceforge.net/DTD/sodipodi-0.dtd"
   xmlns:inkscape="http://www.inkscape.org/namespaces/inkscape"
   version="1.1"
   id="Capa_1"
   x="0px"
   y="0px"
   width="550.801px"
   height="550.801px"
   viewBox="0 0 550.801 550.801"
   xml:space="preserve"
   sodipodi:docname="landscape.svg"
   inkscape:version="0.92.3 (2405546, 2018-03-11)"
   style="enable-background:new 0 0 550.801 550.801;"><metadata
   id="metadata3813"><rdf:RDF><cc:Work
       rdf:about=""><dc:format>image/svg+xml</dc:format><dc:type
         rdf:resource="http://purl.org/dc/dcmitype/StillImage" /><dc:title></dc:title></cc:Work></rdf:RDF></metadata><defs
   id="defs3811" /><sodipodi:namedview
   pagecolor="#ffffff"
   bordercolor="#666666"
   borderopacity="1"
   objecttolerance="10"
   gridtolerance="10"
   guidetolerance="10"
   inkscape:pageopacity="0"
   inkscape:pageshadow="2"
   inkscape:window-width="1600"
   inkscape:window-height="837"
   id="namedview3809"
   showgrid="false"
   inkscape:zoom="0.85756436"
   inkscape:cx="319.67442"
   inkscape:cy="328.9742"
   inkscape:window-x="-8"
   inkscape:window-y="-8"
   inkscape:window-maximized="1"
   inkscape:current-layer="Capa_1"
   scale-x="0.8" />

<g
   id="g3778">
</g>
<g
   id="g3780">
</g>
<g
   id="g3782">
</g>
<g
   id="g3784">
</g>
<g
   id="g3786">
</g>
<g
   id="g3788">
</g>
<g
   id="g3790">
</g>
<g
   id="g3792">
</g>
<g
   id="g3794">
</g>
<g
   id="g3796">
</g>
<g
   id="g3798">
</g>
<g
   id="g3800">
</g>
<g
   id="g3802">
</g>
<g
   id="g3804">
</g>
<g
   id="g3806">
</g>
<g
   inkscape:groupmode="layer"
   id="layer1"
   inkscape:label="Layer 1"
   style="display:inline;opacity:1" /><path
   style="fill:#58cdbd;fill-opacity:1;stroke:none;stroke-width:0.73897237px;stroke-linecap:butt;stroke-linejoin:miter;stroke-opacity:1"
   d="M -0.78537699,439.07997 -0.80095339,21.248709 c 0,-30.6639997 -3.69240751,-23.5222597 31.90933739,-23.5222597 l 499.269916,-0.87729 c 31.06246,0 22.76843,-9.2533893 22.76843,71.2906597 V 441.0445 Z"
   id="path1041"
   inkscape:connector-curvature="0"
   sodipodi:nodetypes="ccccccc" /><path
   style="opacity:1;fill:#3bb7b9;fill-opacity:1;stroke:none;stroke-width:0.43135962;stroke-opacity:1"
   d="M -0.44024006,435.27162 C 2.6508062,401.16419 17.632008,371.30438 39.57005,355.52501 c 4.249894,-3.0568 11.310658,-6.79893 15.951137,-8.4539 10.515325,-3.75016 23.575662,-3.85116 34.303939,-0.26526 18.635154,6.22877 34.700494,22.37231 47.456704,47.68764 l 3.73297,7.40832 3.18926,-1.98853 c 4.45582,-2.77825 12.78911,-6.67725 17.65673,-8.26129 23.56548,-7.66873 47.47982,-3.45795 68.52786,12.06627 2.18031,1.60807 5.06478,3.91819 6.40997,5.13355 1.34519,1.21537 2.52551,2.13023 2.62293,2.03305 0.0973,-0.0973 0.74892,-2.19584 1.44776,-4.66364 9.60041,-33.90174 24.54939,-56.66325 43.03069,-65.51914 5.39571,-2.58555 9.90165,-3.77657 15.54175,-4.10799 19.04361,-1.11907 38.91098,11.61716 52.88585,33.90317 2.85514,4.55313 7.7235,14.58923 9.30058,19.17306 0.65223,1.89576 1.33975,3.62126 1.52782,3.83441 0.20178,0.22871 2.78065,0.16817 6.29225,-0.14771 14.25937,-1.28274 41.39868,-1.30213 59.15406,-0.0421 63.80169,4.52722 107.46524,17.92947 120.17435,36.88677 1.91057,2.84991 3.9602,7.64674 3.45894,8.09523 -0.10187,0.0911 -124.57324,0.30464 -276.60307,0.47443 l -276.41790699,0.30869 z"
   id="path1049"
   inkscape:connector-curvature="0" /><path
   style="fill:#d0f19c;fill-opacity:1;stroke:none;stroke-width:0.73897237px;stroke-linecap:butt;stroke-linejoin:miter;stroke-opacity:1"
   d="m 362.9053,394.14642 h 5.17028 l -83.58596,-174.92727 -16.80335,29.29815 -15.94164,-27.57472 -34.46841,70.66026 -19.38851,-39.20782 -63.7666,134.85772 6.89369,14.64907 c 43.55079,-24.45642 79.17772,-7.22411 98.23504,9.90967 10.08718,-39.34443 60.93385,-132.26984 123.65546,-17.66506 z"
   id="path1053"
   inkscape:connector-curvature="0"
   sodipodi:nodetypes="ccccccccccc" /><path
   style="fill:#ffffff;stroke:none;stroke-width:0.73897237px;stroke-linecap:butt;stroke-linejoin:miter;stroke-opacity:1"
   d="m 197.88771,252.39502 52.56436,-106.85213 34.03755,73.67626 -16.80335,29.29815 -15.94164,-27.57472 -34.46841,70.66026 z"
   id="path1055"
   inkscape:connector-curvature="0"
   sodipodi:nodetypes="ccccccc" /><path
   style="fill:#aaddd5;fill-opacity:1;stroke:none;stroke-width:0.73897237px;stroke-linecap:butt;stroke-linejoin:miter;stroke-opacity:1"
   d="m 338.0034,331.38631 30.37682,-74.94653 55.35902,136.32485 c -19.89072,-1.53244 -38.64465,-0.53074 -55.66366,1.38179 z"
   id="path1057"
   inkscape:connector-curvature="0"
   sodipodi:nodetypes="ccccc" /></svg>